<svg width="629" height="261" viewBox="0 0 629 261" fill="none" xmlns="http://www.w3.org/2000/svg">
<path d="M134.932 146.15C130.403 146.15 127.19 144.359 125.294 140.778C123.398 137.197 122.45 133.036 122.45 128.296C122.45 127.453 122.45 126.611 122.45 125.768C122.555 124.82 122.661 123.925 122.766 123.082C118.131 129.191 113.391 133.879 108.546 137.144C103.701 140.515 98.1705 142.2 91.9558 142.2C87.6372 142.2 84.0558 140.567 81.2118 137.302C78.3678 134.142 76.9458 129.507 76.9458 123.398C76.9458 117.499 78.3152 110.758 81.0538 103.174C83.7925 95.4848 86.8472 87.6901 90.2178 79.7901C91.6925 76.4194 93.4305 72.4168 95.4318 67.7821C97.4332 63.1474 99.3818 58.3021 101.278 53.2461C103.174 48.0847 104.754 42.9761 106.018 37.9201C107.282 32.8641 107.914 28.1767 107.914 23.8581C107.914 16.4847 105.913 11.3761 101.91 8.53208C98.0125 5.68808 92.4825 4.26608 85.3198 4.26608C78.4732 4.26608 71.3632 5.58275 63.9898 8.21608C56.6165 10.8494 49.5065 14.5361 42.6598 19.2761C35.9185 23.9107 29.8092 29.3354 24.3318 35.5501C18.9598 41.6594 14.6412 48.3481 11.3758 55.6161C8.21584 62.7788 6.63584 70.2047 6.63584 77.8941C6.63584 83.7928 7.68917 89.1121 9.79584 93.8521C11.9025 98.5921 14.9572 102.331 18.9598 105.07C23.0678 107.809 27.9132 109.178 33.4958 109.178C38.5518 109.178 43.2392 107.967 47.5578 105.544C51.8765 103.121 55.6685 99.9614 58.9338 96.0641C62.1992 92.1667 64.7272 88.0061 66.5178 83.5821C68.4138 79.0527 69.4145 74.7867 69.5198 70.7841C69.6252 67.4134 68.8352 64.6221 67.1498 62.4101C65.4645 60.1981 62.6732 59.0921 58.7758 59.0921C56.7745 59.0921 54.9312 59.3028 53.2458 59.7241C51.6658 60.1454 50.7178 60.3561 50.4018 60.3561C49.4538 60.3561 48.9798 59.9874 48.9798 59.2501C48.9798 58.0914 50.1385 57.0908 52.4558 56.2481C54.7732 55.3001 57.6698 54.8261 61.1458 54.8261C65.7805 54.8261 69.2038 56.1954 71.4158 58.9341C73.6278 61.6727 74.7338 65.3594 74.7338 69.9941C74.7338 74.4181 73.6278 79.1581 71.4158 84.2141C69.3092 89.2701 66.2545 94.0101 62.2518 98.4341C58.2492 102.858 53.5092 106.492 48.0318 109.336C42.5545 112.075 36.4978 113.444 29.8618 113.444C23.9632 113.444 18.7492 111.917 14.2198 108.862C9.6905 105.702 6.16184 101.436 3.63384 96.0641C1.21117 90.6921 -0.000164093 84.6881 -0.000164093 78.0521C-0.000164093 69.3094 1.7905 61.0407 5.37184 53.2461C8.95317 45.3461 13.7458 38.1834 19.7498 31.7581C25.7538 25.2274 32.4425 19.5921 39.8158 14.8521C47.2945 10.1121 54.8785 6.47808 62.5678 3.95008C70.2572 1.31674 77.5252 7.62939e-05 84.3718 7.62939e-05C90.3758 7.62939e-05 95.8005 1.05341 100.646 3.16008C105.491 5.16142 109.283 8.32142 112.022 12.6401C114.866 16.8534 116.288 22.3307 116.288 29.0721C116.288 36.1294 114.919 43.4501 112.18 51.0341C109.547 58.5127 106.545 66.0441 103.174 73.6281C100.435 79.6321 97.7492 85.6361 95.1158 91.6401C92.4825 97.5388 90.2705 103.279 88.4798 108.862C86.7945 114.445 85.9518 119.764 85.9518 124.82C85.9518 129.139 86.7418 132.457 88.3218 134.774C90.0072 136.986 92.1665 138.092 94.7998 138.092C98.4865 138.092 102.173 136.617 105.86 133.668C109.652 130.719 113.339 126.874 116.92 122.134C120.607 117.394 124.083 112.285 127.348 106.808C130.613 101.225 133.563 95.7481 136.196 90.3761C138.935 85.0041 141.252 80.2641 143.148 76.1561C145.149 71.9427 146.624 68.9407 147.572 67.1501C148.52 65.3594 149.731 63.5161 151.206 61.6201C152.681 59.7241 154.419 58.7761 156.42 58.7761C157.895 58.7761 158.79 59.3554 159.106 60.5141C159.422 61.6728 159.58 62.8314 159.58 63.9901C159.58 66.6234 158.579 69.7307 156.578 73.3121C154.682 76.7881 152.733 80.1061 150.732 83.2661C149.468 85.4781 147.783 88.4274 145.676 92.1141C143.675 95.6954 141.673 99.6981 139.672 104.122C137.671 108.546 135.933 113.023 134.458 117.552C133.089 122.081 132.404 126.242 132.404 130.034C132.404 137.618 134.721 141.41 139.356 141.41C142.305 141.41 145.307 140.199 148.362 137.776C151.417 135.459 154.366 132.457 157.21 128.77C160.159 125.083 162.793 121.186 165.11 117.078C167.533 112.97 169.429 109.125 170.798 105.544C172.062 105.544 172.694 106.018 172.694 106.966C170.903 111.39 168.744 115.919 166.216 120.554C163.793 125.189 161.002 129.455 157.842 133.352C154.682 137.144 151.206 140.199 147.414 142.516C143.622 144.939 139.461 146.15 134.932 146.15Z" fill="black"/>
<path d="M181.417 172.913C181.207 172.913 181.102 172.703 181.102 172.283C181.102 171.863 181.207 171.653 181.417 171.653C184.637 171.653 186.702 171.198 187.612 170.288C188.592 169.378 189.082 167.418 189.082 164.408V112.013C189.082 109.073 188.487 107.148 187.297 106.238C186.107 105.258 183.762 104.768 180.262 104.768C180.052 104.768 179.947 104.558 179.947 104.138C179.947 103.718 180.052 103.508 180.262 103.508C182.012 103.508 183.657 103.508 185.197 103.508C186.807 103.508 188.242 103.508 189.502 103.508C190.832 103.508 191.987 103.508 192.967 103.508C193.737 103.508 194.262 103.683 194.542 104.033C194.822 104.383 194.962 105.118 194.962 106.238V164.408C194.962 166.368 195.207 167.873 195.697 168.923C196.257 169.973 197.272 170.673 198.742 171.023C200.282 171.443 202.522 171.653 205.462 171.653C205.672 171.653 205.777 171.863 205.777 172.283C205.777 172.703 205.672 172.913 205.462 172.913C203.572 172.913 201.472 172.878 199.162 172.808C196.922 172.738 194.542 172.703 192.022 172.703C190.062 172.703 188.137 172.738 186.247 172.808C184.427 172.878 182.817 172.913 181.417 172.913ZM206.092 145.403C203.362 145.403 200.982 145.088 198.952 144.458C196.922 143.828 194.682 142.638 192.232 140.888L193.807 135.113C195.627 137.423 197.692 139.348 200.002 140.888C202.382 142.428 205.462 143.198 209.242 143.198C212.882 143.198 215.927 141.588 218.377 138.368C220.827 135.148 222.052 130.598 222.052 124.718C222.052 118.628 220.687 114.008 217.957 110.858C215.227 107.708 211.972 106.133 208.192 106.133C205.042 106.133 202.312 107.008 200.002 108.758C197.692 110.438 195.452 112.468 193.282 114.848L192.337 114.008C195.907 109.878 199.302 106.868 202.522 104.978C205.812 103.088 209.172 102.143 212.602 102.143C215.472 102.143 218.097 102.913 220.477 104.453C222.927 105.923 224.887 108.093 226.357 110.963C227.897 113.833 228.667 117.333 228.667 121.463C228.667 125.733 227.932 129.373 226.462 132.383C224.992 135.393 223.102 137.878 220.792 139.838C218.482 141.728 216.032 143.128 213.442 144.038C210.852 144.948 208.402 145.403 206.092 145.403ZM243.145 145.088C242.865 145.088 242.62 145.018 242.41 144.878C242.2 144.808 242.095 144.703 242.095 144.563V112.013C242.095 108.933 241.675 106.973 240.835 106.133C240.065 105.223 238.28 104.768 235.48 104.768C235.34 104.768 235.27 104.558 235.27 104.138C235.27 103.718 235.34 103.508 235.48 103.508C236.81 103.508 238.245 103.543 239.785 103.613C241.325 103.683 243.04 103.718 244.93 103.718C246.96 103.718 248.78 103.683 250.39 103.613C252 103.543 253.435 103.508 254.695 103.508C254.905 103.508 255.01 103.718 255.01 104.138C255.01 104.558 254.905 104.768 254.695 104.768C251.895 104.768 250.075 105.223 249.235 106.133C248.395 106.973 247.975 108.933 247.975 112.013V138.473L245.77 139.208L275.065 102.773C275.345 102.563 275.59 102.458 275.8 102.458C276.5 102.458 276.85 102.633 276.85 102.983V135.533C276.85 138.543 277.235 140.503 278.005 141.413C278.845 142.323 280.665 142.778 283.465 142.778C283.605 142.778 283.675 142.988 283.675 143.408C283.675 143.828 283.605 144.038 283.465 144.038C282.135 144.038 280.665 144.003 279.055 143.933C277.445 143.863 275.765 143.828 274.015 143.828C272.195 143.828 270.41 143.863 268.66 143.933C266.98 144.003 265.51 144.038 264.25 144.038C264.04 144.038 263.935 143.828 263.935 143.408C263.935 142.988 264.04 142.778 264.25 142.778C267.05 142.778 268.87 142.323 269.71 141.413C270.55 140.503 270.97 138.543 270.97 135.533V108.968L273.28 108.233L243.88 144.773C243.81 144.843 243.705 144.913 243.565 144.983C243.495 145.053 243.355 145.088 243.145 145.088ZM299.082 124.823V122.723H327.327V124.823H299.082ZM296.352 135.533V112.013C296.352 108.933 295.932 106.973 295.092 106.133C294.322 105.223 292.537 104.768 289.737 104.768C289.527 104.768 289.422 104.558 289.422 104.138C289.422 103.718 289.527 103.508 289.737 103.508C291.067 103.508 292.572 103.543 294.252 103.613C295.932 103.683 297.647 103.718 299.397 103.718C301.077 103.718 302.757 103.683 304.437 103.613C306.117 103.543 307.622 103.508 308.952 103.508C309.092 103.508 309.162 103.718 309.162 104.138C309.162 104.558 309.092 104.768 308.952 104.768C306.012 104.768 304.157 105.258 303.387 106.238C302.617 107.218 302.232 109.213 302.232 112.223V135.533C302.232 138.543 302.617 140.503 303.387 141.413C304.157 142.323 306.012 142.778 308.952 142.778C309.092 142.778 309.162 142.988 309.162 143.408C309.162 143.828 309.092 144.038 308.952 144.038C307.552 144.038 306.012 144.003 304.332 143.933C302.722 143.863 301.077 143.828 299.397 143.828C297.647 143.828 295.932 143.863 294.252 143.933C292.572 144.003 291.032 144.038 289.632 144.038C289.422 144.038 289.317 143.828 289.317 143.408C289.317 142.988 289.422 142.778 289.632 142.778C292.502 142.778 294.322 142.323 295.092 141.413C295.932 140.503 296.352 138.543 296.352 135.533ZM324.597 135.533V112.013C324.597 108.933 324.177 106.973 323.337 106.133C322.567 105.223 320.782 104.768 317.982 104.768C317.772 104.768 317.667 104.558 317.667 104.138C317.667 103.718 317.772 103.508 317.982 103.508C319.312 103.508 320.817 103.543 322.497 103.613C324.177 103.683 325.892 103.718 327.642 103.718C329.322 103.718 331.002 103.683 332.682 103.613C334.362 103.543 335.867 103.508 337.197 103.508C337.337 103.508 337.407 103.718 337.407 104.138C337.407 104.558 337.337 104.768 337.197 104.768C334.257 104.768 332.402 105.258 331.632 106.238C330.862 107.218 330.477 109.213 330.477 112.223V135.533C330.477 138.543 330.862 140.503 331.632 141.413C332.402 142.323 334.257 142.778 337.197 142.778C337.337 142.778 337.407 142.988 337.407 143.408C337.407 143.828 337.337 144.038 337.197 144.038C335.797 144.038 334.257 144.003 332.577 143.933C330.967 143.863 329.322 143.828 327.642 143.828C325.892 143.828 324.142 143.863 322.392 143.933C320.712 144.003 319.207 144.038 317.877 144.038C317.667 144.038 317.562 143.828 317.562 143.408C317.562 142.988 317.667 142.778 317.877 142.778C320.747 142.778 322.567 142.323 323.337 141.413C324.177 140.503 324.597 138.543 324.597 135.533ZM373.383 144.668C373.103 144.808 372.823 144.878 372.543 144.878C371.633 144.878 370.758 144.143 369.918 142.673C369.078 141.133 368.658 138.928 368.658 136.058V116.213C368.658 111.873 368.028 108.828 366.768 107.078C365.578 105.328 364.003 104.453 362.043 104.453C360.293 104.453 358.858 104.908 357.738 105.818C356.618 106.658 355.778 107.673 355.218 108.863C354.728 110.053 354.378 111.173 354.168 112.223C353.958 113.203 353.608 114.183 353.118 115.163C352.628 116.073 351.648 116.528 350.178 116.528C348.988 116.528 348.113 116.213 347.553 115.583C346.993 114.883 346.713 114.148 346.713 113.378C346.713 112.048 347.343 110.753 348.603 109.493C349.933 108.233 351.578 107.078 353.538 106.028C355.568 104.908 357.668 104.033 359.838 103.403C362.078 102.773 364.073 102.458 365.823 102.458C368.693 102.458 370.863 103.403 372.333 105.293C373.803 107.113 374.538 109.703 374.538 113.063V132.698C374.538 135.148 374.853 136.933 375.483 138.053C376.113 139.173 377.128 139.733 378.528 139.733C379.788 139.733 381.538 139.278 383.778 138.368C384.128 138.228 384.373 138.368 384.513 138.788C384.653 139.138 384.548 139.383 384.198 139.523L373.383 144.668ZM354.483 144.773C351.823 144.773 349.793 144.073 348.393 142.673C346.993 141.203 346.293 139.488 346.293 137.528C346.293 136.128 346.643 134.868 347.343 133.748C348.113 132.558 349.303 131.473 350.913 130.493C352.523 129.513 354.588 128.568 357.108 127.658L369.708 122.933L370.023 124.298L358.893 128.603C357.633 129.093 356.583 129.653 355.743 130.283C354.903 130.913 354.273 131.613 353.853 132.383C353.503 133.153 353.328 133.993 353.328 134.903C353.328 136.513 353.853 137.913 354.903 139.103C355.953 140.293 357.388 140.888 359.208 140.888C359.908 140.888 360.643 140.783 361.413 140.573C362.183 140.363 363.128 139.908 364.248 139.208L370.863 135.218L371.073 136.583L363.303 141.623C361.623 142.743 360.083 143.548 358.683 144.038C357.353 144.528 355.953 144.773 354.483 144.773Z" fill="black"/>
<path d="M163.968 167.11C165.237 164.497 165.237 162.555 163.968 161.286C162.773 160.017 160.16 159.382 156.128 159.382C155.904 159.382 155.792 159.158 155.792 158.71C155.792 158.262 155.904 158.038 156.128 158.038C157.92 158.038 159.637 158.113 161.28 158.262C162.923 158.337 165.051 158.374 167.664 158.374C168.933 158.374 170.016 158.374 170.912 158.374C171.808 158.299 172.667 158.225 173.488 158.15C174.384 158.075 175.429 158.038 176.624 158.038C176.773 158.038 176.848 158.262 176.848 158.71C176.848 159.158 176.773 159.382 176.624 159.382C174.683 159.382 172.816 160.091 171.024 161.51C169.307 162.929 167.813 164.982 166.544 167.67L145.712 212.134C143.995 215.718 142.688 218.593 141.792 220.758C140.896 222.849 140.187 224.454 139.664 225.574C139.141 226.619 138.619 227.291 138.096 227.59C137.573 227.889 136.789 228.038 135.744 228.038H118.832C118.608 228.038 118.496 227.814 118.496 227.366C118.496 226.918 118.608 226.694 118.832 226.694C122.416 226.694 125.701 226.209 128.688 225.238C131.675 224.267 134.363 222.662 136.752 220.422C139.141 218.182 141.195 215.27 142.912 211.686L163.968 167.11ZM143.472 213.59L118.496 167.334C117.003 164.497 115.584 162.481 114.24 161.286C112.971 160.017 111.141 159.382 108.752 159.382C108.603 159.382 108.528 159.158 108.528 158.71C108.528 158.262 108.603 158.038 108.752 158.038C109.872 158.038 110.917 158.075 111.888 158.15C112.933 158.225 114.016 158.299 115.136 158.374C116.331 158.374 117.6 158.374 118.944 158.374C121.109 158.374 122.976 158.374 124.544 158.374C126.187 158.299 127.605 158.225 128.8 158.15C130.069 158.075 131.227 158.038 132.272 158.038C132.496 158.038 132.608 158.262 132.608 158.71C132.608 159.158 132.496 159.382 132.272 159.382C129.435 159.382 127.419 159.905 126.224 160.95C125.029 161.995 125.067 163.75 126.336 166.214L147.728 205.526L143.472 213.59ZM194.335 228.038C194.111 228.038 193.999 227.814 193.999 227.366C193.999 226.918 194.111 226.694 194.335 226.694C197.396 226.694 199.337 226.209 200.159 225.238C200.98 224.267 201.391 222.177 201.391 218.966V194.102C201.391 191.937 201.204 190.294 200.831 189.174C200.457 188.054 199.673 187.27 198.479 186.822C197.284 186.374 195.455 186.15 192.991 186.15C192.841 186.15 192.767 185.926 192.767 185.478C192.767 185.03 192.841 184.806 192.991 184.806C195.007 184.806 196.948 184.843 198.815 184.918C200.756 184.993 202.66 185.03 204.527 185.03C206.393 185.03 208.26 184.993 210.127 184.918C212.068 184.843 214.047 184.806 216.063 184.806C216.287 184.806 216.399 185.03 216.399 185.478C216.399 185.926 216.287 186.15 216.063 186.15C213.673 186.15 211.881 186.337 210.687 186.71C209.492 187.083 208.671 187.83 208.223 188.95C207.849 190.07 207.663 191.713 207.663 193.878V218.966C207.663 222.177 208.073 224.267 208.895 225.238C209.791 226.209 211.807 226.694 214.943 226.694C215.092 226.694 215.167 226.918 215.167 227.366C215.167 227.814 215.092 228.038 214.943 228.038C213.449 228.038 211.807 228.001 210.015 227.926C208.223 227.851 206.393 227.814 204.527 227.814C202.66 227.814 200.831 227.851 199.039 227.926C197.321 228.001 195.753 228.038 194.335 228.038ZM167.791 228.038C167.567 228.038 167.455 227.814 167.455 227.366C167.455 226.918 167.567 226.694 167.791 226.694C170.031 226.694 171.785 226.246 173.055 225.35C174.399 224.454 175.593 223.147 176.639 221.43C177.759 219.713 179.103 217.585 180.671 215.046C182.612 212.059 184.217 209.819 185.487 208.326C186.756 206.833 188.1 205.825 189.519 205.302C191.012 204.705 193.028 204.406 195.567 204.406C196.388 204.406 197.284 204.443 198.255 204.518C199.3 204.593 200.457 204.667 201.727 204.742C202.996 204.742 204.303 204.779 205.647 204.854L205.535 206.87C203.593 206.646 201.951 206.534 200.607 206.534C198.665 206.534 197.023 206.833 195.679 207.43C194.409 207.953 193.14 208.998 191.871 210.566C190.601 212.059 189.071 214.299 187.279 217.286C185.636 220.049 184.404 222.177 183.583 223.67C182.836 225.089 182.276 226.134 181.903 226.806C181.529 227.403 181.231 227.777 181.007 227.926C180.783 228.001 180.484 228.038 180.111 228.038H167.791ZM195.567 206.31C194.073 206.31 192.729 205.675 191.535 204.406C190.415 203.137 189.295 201.531 188.175 199.59C187.503 198.246 186.681 196.865 185.711 195.446C184.815 194.027 183.919 192.833 183.023 191.862C182.201 190.891 181.455 190.406 180.783 190.406C180.26 190.406 179.775 190.518 179.327 190.742C178.879 190.966 178.431 191.227 177.983 191.526C177.535 191.825 176.9 191.974 176.079 191.974C174.735 191.974 173.652 191.563 172.831 190.742C172.084 189.846 171.711 188.838 171.711 187.718C171.711 186.673 172.121 185.777 172.943 185.03C173.764 184.209 175.071 183.798 176.863 183.798C178.804 183.798 180.409 184.395 181.679 185.59C183.023 186.785 184.329 188.502 185.599 190.742C186.868 192.982 188.287 195.745 189.855 199.03C190.377 199.926 190.9 200.785 191.423 201.606C192.02 202.427 192.655 203.099 193.327 203.622C193.999 204.145 194.745 204.406 195.567 204.406V206.31ZM229.055 228.038C228.681 228.038 228.383 228.001 228.159 227.926C227.935 227.777 227.636 227.403 227.263 226.806C226.964 226.134 226.367 225.089 225.471 223.67C224.649 222.177 223.455 220.049 221.887 217.286C220.095 214.299 218.527 212.059 217.183 210.566C215.913 208.998 214.607 207.953 213.263 207.43C211.993 206.833 210.388 206.534 208.447 206.534C207.103 206.534 205.497 206.646 203.631 206.87L203.519 204.854C204.863 204.779 206.169 204.742 207.439 204.742C208.708 204.667 209.865 204.593 210.911 204.518C211.956 204.443 212.852 204.406 213.599 204.406C216.137 204.406 218.116 204.705 219.535 205.302C221.028 205.825 222.409 206.833 223.679 208.326C224.948 209.819 226.516 212.059 228.383 215.046C230.025 217.585 231.369 219.713 232.415 221.43C233.535 223.147 234.729 224.454 235.999 225.35C237.343 226.246 239.135 226.694 241.375 226.694C241.599 226.694 241.711 226.918 241.711 227.366C241.711 227.814 241.599 228.038 241.375 228.038H229.055ZM213.599 206.31V204.406C214.42 204.406 215.167 204.145 215.839 203.622C216.511 203.099 217.108 202.427 217.631 201.606C218.153 200.785 218.676 199.926 219.199 199.03C220.916 195.745 222.372 192.982 223.567 190.742C224.836 188.502 226.143 186.785 227.487 185.59C228.831 184.395 230.436 183.798 232.303 183.798C234.02 183.798 235.289 184.209 236.111 185.03C237.007 185.777 237.455 186.673 237.455 187.718C237.455 188.838 237.044 189.846 236.223 190.742C235.476 191.563 234.431 191.974 233.087 191.974C232.34 191.974 231.705 191.825 231.183 191.526C230.66 191.227 230.175 190.966 229.727 190.742C229.353 190.518 228.905 190.406 228.383 190.406C227.785 190.406 227.001 190.891 226.031 191.862C225.135 192.833 224.239 194.027 223.343 195.446C222.447 196.865 221.625 198.246 220.879 199.59C219.908 201.531 218.825 203.137 217.631 204.406C216.436 205.675 215.092 206.31 213.599 206.31ZM264.066 229.382C259.586 229.382 255.815 228.374 252.754 226.358C249.693 224.267 247.378 221.579 245.81 218.294C244.317 215.009 243.57 211.537 243.57 207.878C243.57 203.323 244.615 199.254 246.706 195.67C248.797 192.011 251.634 189.137 255.218 187.046C258.877 184.881 262.871 183.798 267.202 183.798C271.458 183.798 274.669 184.918 276.834 187.158C279.074 189.398 280.194 192.534 280.194 196.566C280.194 197.537 280.082 198.283 279.858 198.806C279.709 199.254 279.373 199.478 278.85 199.478H272.578C272.877 194.923 272.205 191.563 270.562 189.398C268.919 187.158 266.567 186.038 263.506 186.038C259.549 186.038 256.45 187.606 254.21 190.742C252.045 193.878 250.962 198.171 250.962 203.622C250.962 207.878 251.634 211.649 252.978 214.934C254.322 218.219 256.301 220.795 258.914 222.662C261.527 224.529 264.701 225.462 268.434 225.462C270.973 225.462 273.063 225.089 274.706 224.342C276.349 223.595 277.991 222.737 279.634 221.766C279.783 221.617 279.97 221.729 280.194 222.102C280.493 222.401 280.567 222.662 280.418 222.886C277.805 225.201 275.117 226.881 272.354 227.926C269.666 228.897 266.903 229.382 264.066 229.382ZM248.946 199.59L248.834 198.134L274.258 197.686V199.478L248.946 199.59ZM285.593 228.038C285.294 228.038 285.145 227.814 285.145 227.366C285.145 226.918 285.294 226.694 285.593 226.694C286.414 226.694 287.273 226.358 288.169 225.686C289.065 224.939 290.11 223.595 291.305 221.654C292.5 219.713 293.918 216.913 295.561 213.254L308.441 183.126C308.59 182.827 308.814 182.678 309.113 182.678C309.486 182.678 309.71 182.827 309.785 183.126L323.673 212.694C325.54 216.577 327.033 219.526 328.153 221.542C329.273 223.558 330.356 224.939 331.401 225.686C332.446 226.358 333.79 226.694 335.433 226.694C335.806 226.694 335.993 226.918 335.993 227.366C335.993 227.814 335.806 228.038 335.433 228.038C333.716 228.038 331.924 227.963 330.057 227.814C328.265 227.665 326.51 227.59 324.793 227.59C323.374 227.59 321.844 227.665 320.201 227.814C318.558 227.963 317.065 228.038 315.721 228.038C315.422 228.038 315.273 227.814 315.273 227.366C315.273 226.918 315.422 226.694 315.721 226.694C317.662 226.694 319.006 226.059 319.753 224.79C320.574 223.521 320.276 221.467 318.857 218.63L306.425 192.086L309.001 188.614L298.137 214.262C296.718 217.622 296.009 220.198 296.009 221.99C296.084 223.782 296.644 225.014 297.689 225.686C298.734 226.358 299.966 226.694 301.385 226.694C301.758 226.694 301.945 226.918 301.945 227.366C301.945 227.814 301.758 228.038 301.385 228.038C300.041 228.038 298.846 227.963 297.801 227.814C296.83 227.665 295.449 227.59 293.657 227.59C292.313 227.59 291.23 227.627 290.409 227.702C289.662 227.777 288.953 227.851 288.281 227.926C287.609 228.001 286.713 228.038 285.593 228.038ZM359.691 229.494C355.286 229.494 351.441 228.411 348.155 226.246C344.87 224.081 342.331 221.206 340.539 217.622C338.747 213.963 337.851 210.043 337.851 205.862C337.851 201.979 338.561 198.619 339.979 195.782C341.398 192.945 343.302 190.63 345.691 188.838C348.081 186.971 350.657 185.59 353.419 184.694C356.257 183.798 359.019 183.35 361.707 183.35C366.262 183.35 370.145 184.47 373.355 186.71C376.641 188.95 379.142 191.825 380.859 195.334C382.577 198.843 383.435 202.539 383.435 206.422C383.435 211.201 382.353 215.307 380.187 218.742C378.022 222.177 375.147 224.827 371.563 226.694C367.979 228.561 364.022 229.494 359.691 229.494ZM362.939 227.366C366.897 227.366 370.033 225.985 372.347 223.222C374.662 220.385 375.819 215.83 375.819 209.558C375.819 204.854 375.035 200.71 373.467 197.126C371.974 193.467 369.883 190.63 367.195 188.614C364.507 186.523 361.446 185.478 358.011 185.478C354.054 185.478 350.955 186.934 348.715 189.846C346.475 192.758 345.355 196.939 345.355 202.39C345.355 206.945 346.102 211.126 347.595 214.934C349.089 218.742 351.142 221.766 353.755 224.006C356.443 226.246 359.505 227.366 362.939 227.366ZM401.413 184.918C403.354 184.918 405.37 184.881 407.461 184.806C409.626 184.657 411.754 184.582 413.845 184.582C418.176 184.582 421.498 185.291 423.813 186.71C426.202 188.129 427.397 190.257 427.397 193.094C427.397 197.126 424.373 201.158 418.325 205.19L416.869 204.518C417.989 203.473 418.848 202.278 419.445 200.934C420.042 199.515 420.341 197.761 420.341 195.67C420.341 192.31 419.52 189.883 417.877 188.39C416.309 186.897 413.994 186.15 410.933 186.15C408.394 186.15 406.677 186.635 405.781 187.606C404.885 188.502 404.437 190.667 404.437 194.102V218.966C404.437 221.579 404.997 223.483 406.117 224.678C407.312 225.873 409.738 226.47 413.397 226.47C417.354 226.47 420.229 225.649 422.021 224.006C423.888 222.363 424.821 220.011 424.821 216.95C424.821 213.665 423.85 211.014 421.909 208.998C419.968 206.907 416.72 205.862 412.165 205.862H401.861L401.749 204.07H416.085C426.762 204.07 432.101 207.505 432.101 214.374C432.101 218.406 430.533 221.729 427.397 224.342C424.261 226.955 420.266 228.262 415.413 228.262C413.621 228.262 411.344 228.187 408.581 228.038C405.893 227.889 403.504 227.814 401.413 227.814C399.546 227.814 397.717 227.851 395.925 227.926C394.133 228.001 392.49 228.038 390.997 228.038C390.773 228.038 390.661 227.814 390.661 227.366C390.661 226.918 390.773 226.694 390.997 226.694C394.058 226.694 396 226.209 396.821 225.238C397.717 224.267 398.165 222.177 398.165 218.966V193.878C398.165 190.593 397.717 188.502 396.821 187.606C396 186.635 394.096 186.15 391.109 186.15C390.885 186.15 390.773 185.926 390.773 185.478C390.773 185.03 390.885 184.806 391.109 184.806C392.528 184.806 394.133 184.843 395.925 184.918C397.717 184.918 399.546 184.918 401.413 184.918ZM462.176 229.382C457.098 229.382 452.954 228.299 449.744 226.134C446.533 223.894 444.144 221.094 442.576 217.734C441.082 214.299 440.336 210.827 440.336 207.318C440.336 203.585 441.045 200.262 442.464 197.35C443.957 194.438 445.898 191.974 448.288 189.958C450.677 187.942 453.328 186.411 456.24 185.366C459.152 184.321 461.989 183.798 464.752 183.798C466.917 183.798 468.97 184.097 470.912 184.694C472.928 185.217 474.57 186.001 475.84 187.046C477.184 188.091 477.856 189.286 477.856 190.63C477.856 191.601 477.52 192.459 476.848 193.206C476.176 193.878 475.205 194.214 473.936 194.214C472.741 194.214 471.733 193.841 470.912 193.094C470.165 192.347 469.53 191.489 469.008 190.518C468.186 189.174 467.216 188.091 466.096 187.27C464.976 186.449 463.296 186.038 461.056 186.038C456.8 186.038 453.514 187.718 451.2 191.078C448.885 194.363 447.728 198.657 447.728 203.958C447.728 207.766 448.362 211.313 449.632 214.598C450.976 217.883 453.029 220.534 455.792 222.55C458.554 224.491 462.138 225.462 466.544 225.462C468.56 225.462 470.538 225.201 472.48 224.678C474.421 224.155 476.25 223.185 477.968 221.766C478.117 221.617 478.304 221.691 478.528 221.99C478.826 222.289 478.901 222.513 478.752 222.662C476.138 224.977 473.525 226.694 470.912 227.814C468.298 228.859 465.386 229.382 462.176 229.382ZM485.711 228.038C485.487 228.038 485.375 227.814 485.375 227.366C485.375 226.918 485.487 226.694 485.711 226.694C488.772 226.694 490.713 226.209 491.535 225.238C492.356 224.267 492.767 222.177 492.767 218.966V193.878C492.767 190.593 492.356 188.502 491.535 187.606C490.713 186.635 488.809 186.15 485.823 186.15C485.599 186.15 485.487 185.926 485.487 185.478C485.487 185.03 485.599 184.806 485.823 184.806C487.167 184.806 488.735 184.843 490.527 184.918C492.319 184.993 494.185 185.03 496.127 185.03C498.217 185.03 500.233 184.993 502.175 184.918C504.191 184.843 505.945 184.806 507.439 184.806C507.663 184.806 507.775 185.03 507.775 185.478C507.775 185.926 507.663 186.15 507.439 186.15C503.929 186.15 501.652 186.673 500.607 187.718C499.636 188.689 499.151 190.817 499.151 194.102V218.966C499.151 222.177 499.561 224.267 500.383 225.238C501.204 226.209 503.145 226.694 506.207 226.694C506.356 226.694 506.431 226.918 506.431 227.366C506.431 227.814 506.356 228.038 506.207 228.038C504.788 228.038 503.183 228.001 501.391 227.926C499.673 227.851 497.919 227.814 496.127 227.814C494.185 227.814 492.319 227.851 490.527 227.926C488.735 228.001 487.129 228.038 485.711 228.038ZM521.439 228.038C521.14 228.038 520.879 228.001 520.655 227.926C520.431 227.777 520.132 227.403 519.759 226.806C519.46 226.134 518.863 225.089 517.967 223.67C517.145 222.177 515.951 220.049 514.383 217.286C512.591 214.299 511.023 212.059 509.679 210.566C508.409 208.998 507.103 207.953 505.759 207.43C504.489 206.833 502.884 206.534 500.943 206.534C499.599 206.534 497.956 206.646 496.015 206.87L495.903 204.854C497.321 204.779 498.628 204.742 499.823 204.742C501.092 204.667 502.249 204.593 503.295 204.518C504.415 204.443 505.348 204.406 506.095 204.406C508.633 204.406 510.612 204.705 512.031 205.302C513.524 205.825 514.905 206.833 516.175 208.326C517.444 209.819 519.012 212.059 520.879 215.046C522.521 217.585 523.865 219.713 524.911 221.43C526.031 223.073 527.225 224.342 528.495 225.238C529.839 226.134 531.631 226.619 533.871 226.694C534.02 226.694 534.095 226.918 534.095 227.366C534.095 227.814 534.02 228.038 533.871 228.038H521.439ZM506.095 206.31V204.406C506.916 204.406 507.663 204.145 508.335 203.622C509.007 203.099 509.604 202.427 510.127 201.606C510.649 200.785 511.172 199.926 511.695 199.03C513.412 195.819 514.868 193.094 516.063 190.854C517.332 188.539 518.639 186.785 519.983 185.59C521.327 184.395 522.932 183.798 524.799 183.798C526.516 183.798 527.785 184.209 528.607 185.03C529.503 185.777 529.951 186.673 529.951 187.718C529.951 188.838 529.54 189.846 528.719 190.742C527.972 191.563 526.889 191.974 525.471 191.974C524.724 191.974 524.089 191.825 523.567 191.526C523.119 191.227 522.671 190.966 522.223 190.742C521.849 190.518 521.364 190.406 520.767 190.406C520.169 190.406 519.423 190.891 518.527 191.862C517.705 192.833 516.847 194.027 515.951 195.446C515.055 196.865 514.196 198.246 513.375 199.59C512.404 201.531 511.321 203.137 510.127 204.406C508.932 205.675 507.588 206.31 506.095 206.31ZM569.034 228.71C568.736 228.859 568.437 228.934 568.138 228.934C567.168 228.934 566.234 228.15 565.338 226.582C564.442 224.939 563.994 222.587 563.994 219.526V198.358C563.994 193.729 563.322 190.481 561.978 188.614C560.709 186.747 559.029 185.814 556.938 185.814C555.072 185.814 553.541 186.299 552.346 187.27C551.152 188.166 550.256 189.249 549.658 190.518C549.136 191.787 548.762 192.982 548.538 194.102C548.314 195.147 547.941 196.193 547.418 197.238C546.896 198.209 545.85 198.694 544.282 198.694C543.013 198.694 542.08 198.358 541.482 197.686C540.885 196.939 540.586 196.155 540.586 195.334C540.586 193.915 541.258 192.534 542.602 191.19C544.021 189.846 545.776 188.614 547.866 187.494C550.032 186.299 552.272 185.366 554.586 184.694C556.976 184.022 559.104 183.686 560.97 183.686C564.032 183.686 566.346 184.694 567.914 186.71C569.482 188.651 570.266 191.414 570.266 194.998V215.942C570.266 218.555 570.602 220.459 571.274 221.654C571.946 222.849 573.029 223.446 574.522 223.446C575.866 223.446 577.733 222.961 580.122 221.99C580.496 221.841 580.757 221.99 580.906 222.438C581.056 222.811 580.944 223.073 580.57 223.222L569.034 228.71ZM548.874 228.822C546.037 228.822 543.872 228.075 542.378 226.582C540.885 225.014 540.138 223.185 540.138 221.094C540.138 219.601 540.512 218.257 541.258 217.062C542.08 215.793 543.349 214.635 545.066 213.59C546.784 212.545 548.986 211.537 551.674 210.566L565.114 205.526L565.45 206.982L553.578 211.574C552.234 212.097 551.114 212.694 550.218 213.366C549.322 214.038 548.65 214.785 548.202 215.606C547.829 216.427 547.642 217.323 547.642 218.294C547.642 220.011 548.202 221.505 549.322 222.774C550.442 224.043 551.973 224.678 553.914 224.678C554.661 224.678 555.445 224.566 556.266 224.342C557.088 224.118 558.096 223.633 559.29 222.886L566.346 218.63L566.57 220.086L558.282 225.462C556.49 226.657 554.848 227.515 553.354 228.038C551.936 228.561 550.442 228.822 548.874 228.822ZM624.356 226.694C624.505 226.694 624.58 226.918 624.58 227.366C624.58 227.814 624.505 228.038 624.356 228.038C623.087 228.038 621.593 228.001 619.876 227.926C618.233 227.851 616.479 227.814 614.612 227.814C612.596 227.814 610.729 227.851 609.012 227.926C607.369 228.001 605.801 228.038 604.308 228.038C604.159 228.038 604.084 227.814 604.084 227.366C604.084 226.918 604.159 226.694 604.308 226.694C607.295 226.694 609.161 226.209 609.908 225.238C610.729 224.267 611.14 222.177 611.14 218.966V207.766L612.932 207.99C610.841 207.99 608.9 208.251 607.108 208.774C605.391 209.297 603.711 210.342 602.068 211.91C600.5 213.478 598.82 215.83 597.028 218.966C595.759 221.355 594.751 223.222 594.004 224.566C593.257 225.835 592.623 226.731 592.1 227.254C591.652 227.777 591.129 228.038 590.532 228.038H580.788C580.639 228.038 580.564 227.814 580.564 227.366C580.564 226.918 580.639 226.694 580.788 226.694C582.729 226.694 584.335 226.171 585.604 225.126C586.873 224.006 587.881 222.737 588.628 221.318C589.449 219.899 590.159 218.667 590.756 217.622C592.623 214.486 594.9 212.097 597.588 210.454C600.276 208.737 603.188 207.878 606.324 207.878L607.108 208.214C600.537 208.214 595.983 207.169 593.444 205.078C590.98 202.913 589.748 200.15 589.748 196.79C589.748 194.251 590.345 192.049 591.54 190.182C592.735 188.315 594.415 186.897 596.58 185.926C598.82 184.955 601.321 184.47 604.084 184.47C605.652 184.47 607.407 184.582 609.348 184.806C611.289 184.955 613.044 185.03 614.612 185.03C616.479 185.03 618.196 184.993 619.764 184.918C621.407 184.843 622.9 184.806 624.244 184.806C624.393 184.806 624.468 185.03 624.468 185.478C624.468 185.926 624.393 186.15 624.244 186.15C621.481 186.15 619.652 186.635 618.756 187.606C617.86 188.502 617.412 190.593 617.412 193.878V218.966C617.412 222.177 617.86 224.267 618.756 225.238C619.727 226.209 621.593 226.694 624.356 226.694ZM596.468 194.438C596.468 197.798 597.327 200.673 599.044 203.062C600.761 205.451 603.337 206.646 606.772 206.646C607.817 206.646 608.975 206.609 610.244 206.534C611.513 206.385 612.521 206.235 613.268 206.086L611.14 206.982V194.102C611.14 190.891 610.729 188.726 609.908 187.606C609.087 186.411 607.407 185.814 604.868 185.814C602.255 185.814 600.201 186.449 598.708 187.718C597.215 188.913 596.468 191.153 596.468 194.438Z" fill="black"/>
</svg>
